<?xml version="1.0" encoding="UTF-8"?>
<svg id="Capa_2" data-name="Capa 2" xmlns="http://www.w3.org/2000/svg" viewBox="0 0 89.63 100.09">
  <defs>
    <style>
      .cls-1 {
        fill: #e1dfe0;
      }
    </style>
  </defs>
  <g id="Capa_1-2" data-name="Capa 1">
    <g>
      <path class="cls-1" d="M43.94,84.63c-1.53.45-3.11.58-4.63.41-.38-.06-.76-.07-1.14-.16l-1.12-.27c-.37-.08-.73-.26-1.09-.38-.36-.14-.72-.24-1.06-.44-.7-.35-1.4-.64-2.05-1.09l-.99-.61c-.35-.22-.76-.5-1.15-.73-1.59-.95-3.3-1.88-5.23-2.48-.96-.28-1.99-.48-2.99-.51-.96-.04-1.94.03-2.91.19-1.94.34-3.88,1.09-5.48,2.25-1.6,1.15-2.85,2.66-3.61,4.39l.37.41c1.79-.53,3.35-1.02,4.86-1.26,1.5-.27,2.92-.33,4.37-.31l2.2.06c.7.02,1.37.03,2.07.11,1.41.1,2.9.44,4.33,1.05.37.16.69.31,1.1.49l1.28.56c.83.4,1.75.65,2.64.93.44.15.92.21,1.38.3.47.07.92.19,1.39.22l1.41.09c.47.02.95-.04,1.42-.05,3.77-.32,7.27-2.19,9.36-5.08l-.42-.35c-1.26,1.06-2.77,1.82-4.3,2.27h0Z"/>
      <path class="cls-1" d="M86.66,32.43c-2.07-6.17-4.99-11.64-8.76-16.44-3.77-4.79-8.49-8.66-14.17-11.59C58.05,1.47,51.91,0,45.3,0H0v.28l10.26,4.61v35.82c.1-.06.21-.11.31-.16h13.69c.15.08.3.16.45.25v-.25h.08l-.08-.1V2.32h13.12c6.98,0,13.35,2.36,19.12,7.08,5.77,4.72,10.2,10.83,13.3,18.32,3.09,7.49,4.59,15.38,4.5,23.66-.09,8.52-1.72,16.31-4.89,23.38-3.16,7.07-7.56,12.68-13.19,16.82s-11.91,6.21-18.85,6.21h-5.8l-21.58-.45v2.75h34.85c8.65,0,16.37-2.23,23.14-6.7,6.77-4.47,11.96-10.38,15.57-17.73,3.61-7.35,5.48-15.45,5.62-24.29.09-6.47-.9-12.78-2.97-18.95h.01Z"/>
      <path class="cls-1" d="M10.65,71.9c1.94-.67,3.68-1.26,5.4-1.58,1.7-.35,3.35-.47,5.01-.47.84,0,1.67.01,2.52.04.82.02,1.59.04,2.4.13,1.62.13,3.29.54,4.86,1.26l.59.28.62.31,1.41.67c.91.48,1.94.77,2.92,1.12,2.03.54,4.14.91,6.26.7,2.1-.18,4.14-.79,5.92-1.79.9-.48,1.71-1.09,2.48-1.73.75-.68,1.43-1.38,2.02-2.2l-.42-.35c-1.39,1.23-3.07,2.14-4.78,2.71-1.72.57-3.5.77-5.23.61-1.74-.09-3.41-.69-4.99-1.39-.78-.41-1.58-.73-2.31-1.25l-1.11-.71c-.17-.1-.41-.27-.62-.41l-.66-.43c-1.79-1.11-3.74-2.11-5.88-2.73-.54-.15-1.08-.27-1.64-.37-.55-.08-1.14-.15-1.67-.16-1.06-.05-2.15.04-3.22.21-2.15.37-4.28,1.16-6.08,2.4-1.8,1.23-3.25,2.85-4.17,4.72l.37.41h0Z"/>
      <path class="cls-1" d="M21.98,56.11c1.88,0,3.6.04,5.42.24,1.81.18,3.66.63,5.38,1.42.44.2.83.4,1.31.64.51.25.99.52,1.51.75.52.23,1.02.47,1.56.66l.79.3.81.26c1.09.33,2.21.56,3.34.7,1.13.15,2.28.17,3.42.1,2.27-.17,4.49-.82,6.43-1.9,1.93-1.08,3.62-2.49,4.91-4.24l-.42-.35c-3.06,2.7-7.13,4.1-10.93,3.74-.95-.07-1.89-.23-2.81-.49-.92-.25-1.81-.58-2.68-.99l-.65-.29-.64-.33c-.43-.21-.84-.47-1.25-.72-.42-.24-.81-.53-1.22-.79-.42-.28-.93-.63-1.41-.91-1.96-1.18-4.07-2.21-6.35-2.87-1.14-.31-2.32-.53-3.52-.59-1.21-.06-2.37.02-3.53.21-2.32.39-4.62,1.22-6.57,2.52-1.95,1.31-3.55,3.01-4.6,5l.37.41c2.07-.78,3.96-1.46,5.82-1.87,1.86-.42,3.67-.57,5.51-.6h0Z"/>
    </g>
  </g>
</svg>